<?xml version="1.0" encoding="utf-8"?>
<!-- Generator: Adobe Illustrator 25.3.1, SVG Export Plug-In . SVG Version: 6.00 Build 0)  -->
<svg version="1.1" id="Layer_1" xmlns="http://www.w3.org/2000/svg" xmlns:xlink="http://www.w3.org/1999/xlink" x="0px" y="0px"
	 viewBox="0 0 100 100" style="enable-background:new 0 0 100 100;" xml:space="preserve">
<style type="text/css">
	.st0{fill:#FFFFFF;}
</style>
<g>
	<path class="st0" d="M87.3,62.1c-2.8-3.7-6.7-6.5-10.5-9.7c-0.6-0.6-1.3-1.1-1.9-1.7c-0.4-0.4-0.9-0.6-1.1-1.1
		c-0.2-0.2-0.2-0.2-0.4-0.4c-5.2-4.5-9.5-9.2-14-14c-0.9-0.9-1.9-1.9-2.8-3c-1.7-1.9-3.7-4.1-5.6-6.2c-0.9-0.9-1.5-1.9-2.4-2.8
		c-0.6-0.6-1.3-1.5-1.9-2.2c-0.4-0.6-1.1-1.1-1.5-1.7c-1.3-1.5-2.8-3-4.1-4.3c-6.5-6.5-14-11.4-21.7-12h-1.9C8.1,3.4,1.7,9.6,1.7,18
		c0,0.9,0,2.6,0.4,3.9c2.4,9.2,11,16.3,18.7,23.9c0.4,0.4,1.1,1.1,1.5,1.5c0.2,0.2,0.4,0.4,0.6,0.6c0.4,0.4,0.9,1.1,1.5,1.5
		c0.4,0.4,0.9,0.9,1.1,1.3c0.6,0.6,1.1,1.1,1.7,1.7l0,0c0.4,0.4,1.1,1.1,1.5,1.5c0.9,0.9,1.7,1.9,2.6,2.8c4.5,4.9,9,10.3,13.3,15.3
		c0.2,0.2,0.2,0.2,0.4,0.4c1.5,1.9,2.8,3.7,4.3,5.6c0.4,0.6,1.1,1.3,1.5,1.9c0.6,0.6,1.1,1.3,1.7,1.9c3.4,4.1,7.1,7.7,11.6,10.3
		c4.3,2.2,9,3.9,14,3.9c4.5,0,8.4-1.3,11.6-4.3c3.9-3.4,5.2-7.3,5.2-11.6C95,74.3,91.6,67.7,87.3,62.1z M35.6,26.8
		c1.1,1.1,1.1,2.4,0,3.2c-1.1,1.1-2.4,1.1-3.2,0c-1.1-1.1-1.1-2.4,0-3.2C33.5,25.9,34.8,25.9,35.6,26.8z M27.9,15.8
		c0.9-1.1,2.6-1.1,3.2,0c1.1,1.1,1.1,2.4,0,3.2c-1.1,1.1-2.4,1.1-3.2,0C26.8,18,26.8,16.7,27.9,15.8z M13.3,22.1
		c-1.1,1.1-2.4,1.1-3.2,0C9,21,9,19.7,10,18.8c0.9-1.1,2.2-1.1,3.2,0C14.3,19.9,14.3,21.2,13.3,22.1z M17.8,33
		c-1.1,0.9-2.4,1.1-3.2,0c-0.9-1.1-1.1-2.4,0-3.2s2.2-1.1,3.2,0C18.9,30.9,18.9,32.2,17.8,33z M19.9,14.8c-1.1,1.1-2.4,1.1-3.2,0
		c-1.1-1.1-1.1-2.4,0-3.2c1.1-0.9,2.4-0.6,3.2,0C21,12.6,21,13.9,19.9,14.8z M21.4,25.9c-1.1-1.1-1.1-2.4,0-3.2
		c0.9-1.1,2.2-0.6,3.2,0c1.1,1.1,1.1,2.4,0,3.2C23.6,27,22.3,27,21.4,25.9z M25.5,33.7c1.1-0.6,2.4-0.9,3.2,0c1.1,1.1,1.1,2.4,0,3.2
		c-1.1,1.1-2.4,1.1-3.2,0C24.5,35.8,24.5,34.5,25.5,33.7z M52.2,74.1l-0.4,0.2l-1.9,1.7l-1.7-1.9l-9.9-10.8l-9-9.9l-1.5-1.7l0,0
		L26,50l0,0l0,0l11.6-10.5l5.2-4.7l4.5-4.1l1.7-1.5l1.3-1.1l7.5,8.2l3.4,3.7l8.8,9.5l1.7,1.7l1.5,1.5l1.1,1.3L62.5,64.7L52.2,74.1z
		 M62.7,73.7c-1.1-1.1-1.1-2.4,0-3.2c0.9-0.9,2.2-0.9,3.2,0c1.1,1.1,1.1,2.4,0,3.2C64.9,74.8,63.6,74.8,62.7,73.7z M68.8,86.4
		c-1.1,1.1-2.4,1.1-3.2,0c-1.1-1.1-1.1-2.4,0-3.2c0.6-0.9,2.4-0.9,3.2,0C69.8,84.2,69.8,85.5,68.8,86.4z M69.6,66.6
		c-1.1-1.1-1.1-2.4,0-3.2c0.9-1.1,2.2-1.1,3.2,0s1.1,2.4,0,3.2C71.8,67.7,70.5,67.7,69.6,66.6z M72.4,79.3c-1.1-1.1-1.1-2.4,0-3.2
		c0.6-1.1,2.4-1.1,3.2,0c1.1,1.1,1.1,2.4,0,3.2C74.6,80.4,73.3,80.4,72.4,79.3z M79.9,90.3c-1.1,0.9-2.4,1.1-3.2,0s-1.1-2.4,0-3.2
		c0.9-0.6,2.2-0.9,3.2,0C81,88.1,81,89.4,79.9,90.3z M79.3,72.4c-0.9-1.1-1.1-2.4,0-3.2c0.6-1.1,2.2-1.1,3.2,0
		c1.1,1.1,1.1,2.4,0,3.2C81.5,73.5,80.2,73.5,79.3,72.4z M86.8,83.4c-1.1,1.1-2.4,1.1-3.2,0c-1.1-1.1-1.1-2.4,0-3.2
		c0.9-0.9,2.2-0.9,3.2,0C87.9,81.2,87.9,82.5,86.8,83.4z"/>
	<path class="st0" d="M38.2,73.9c0,0.2-0.2,0.6-0.4,0.9c-0.6,1.1-2.4,1.3-3.2,0.4c-0.9-0.9-1.3-2.4-0.4-3.2c0.4-0.4,1.1-0.9,1.5-0.9
		c-4.9-5.8-10.3-11.8-15.7-17.4c-4.3,4.5-8.4,9-11.2,14.6c-4.3,8.2-4.5,18.3,1.5,25.6c6,7.5,17.9,4.9,24.7,0.2c0,0,0.2,0,0.2-0.2
		c4.1-2.8,7.3-6.7,10.3-10.5c-1.9-2.4-3.7-4.7-5.6-7.1C39.5,75.4,38.9,74.8,38.2,73.9z M15.2,84.2c-0.6,1.1-2.4,1.3-3.2,0.4
		c-1.1-1.1-1.3-2.4-0.4-3.2c1.1-1.1,2.4-1.3,3.2-0.4C15.9,81.9,15.9,83.2,15.2,84.2z M17.8,72.8c-0.6,1.1-2.4,1.3-3.2,0.4
		c-0.9-0.9-1.3-2.4-0.4-3.2c1.1-1.1,2.4-1.3,3.2-0.4C18.4,70.3,18.6,71.8,17.8,72.8z M22.7,90.3c-0.6,1.1-2.4,1.3-3.2,0.4
		c-0.9-0.9-1.3-2.4-0.4-3.2c1.1-1.1,2.4-1.3,3.2-0.4C23.4,87.7,23.6,89.4,22.7,90.3z M25.5,78.6c-0.6,1.1-2.4,1.3-3.2,0.4
		c-1.1-1.1-1.3-2.4-0.4-3.2c1.1-1.1,2.4-1.3,3.2-0.4C26.2,76.3,26.2,77.6,25.5,78.6z M26.8,69c-1.1-1.1-1.3-2.4-0.4-3.2
		c1.1-1.1,2.4-1.3,3.2-0.4c1.1,0.9,1.5,2.2,0.4,3.2C29.4,69.6,27.7,69.8,26.8,69z M33.5,84.9c-0.6,1.1-2.4,1.3-3.2,0.4
		c-1.1-1.1-1.3-2.4-0.4-3.2c1.1-1.1,2.4-1.3,3.2-0.4C33.7,82.3,34.1,83.8,33.5,84.9z"/>
	<path class="st0" d="M59.3,25.3c1.1-1.1,2.4-1.3,3.2-0.4c1.1,1.1,1.1,1.9,0.4,3.2c-0.6,1.1-2.2,1.3-3,0.4c1.1,1.1,1.9,2.2,2.8,3.2
		c4.5,4.7,9,9.5,14,13.8c4.1-4.3,8.2-8.6,11.4-13.5c3.2-5.2,5.4-11.2,4.7-17.4c-0.6-6-4.5-12-10.3-14c-5.4-1.9-11.6,0-16.3,3.2
		s-8.2,8-11.8,12.5c-0.9,1.1-1.7,2.2-2.6,3c2.6,3,5.2,6,7.5,8.6C58.7,27,58.7,26.2,59.3,25.3z M80.2,14.3c0.9-0.9,2.4-1.3,3.2-0.4
		c1.1,0.6,1.5,1.9,0.4,3.2c-0.6,1.1-2.4,1.3-3.2,0.4C79.5,16.5,79.3,15.2,80.2,14.3z M77.6,25.7c0.9-0.9,2.4-1.3,3.2-0.4
		c0.9,0.9,1.1,2.2,0.4,3.2c-0.6,1.1-2.4,1.3-3.2,0.4C76.9,27.9,76.7,26.6,77.6,25.7z M72.6,8.1C73.7,7,75,6.8,75.9,7.7
		c1.1,0.6,1.1,2.4,0.4,3.2c-0.6,1.1-2.4,1.3-3.2,0.4C72,10.2,71.8,9,72.6,8.1z M69.8,19.5c0.9-0.9,2.4-1.3,3.2-0.4
		c1.1,1.1,1.1,2.4,0.4,3.2c-0.6,1.1-2.4,1.3-3.2,0.4C69.4,21.9,69,20.4,69.8,19.5z M66.8,31.3c0.9-0.9,2.4-1.3,3.2-0.4
		c1.1,0.6,1.5,2.2,0.4,3.2c-0.6,1.1-2.4,1.3-3.2,0.4C66.2,33.5,66,32.2,66.8,31.3z M62.3,13.7c0.9-0.9,2.4-1.3,3.2-0.4
		c0.6,0.6,1.1,2.2,0.4,3.2c-0.6,1.1-2.4,1.3-3.2,0.4C61.7,15.8,61.4,14.5,62.3,13.7z"/>
	<polygon class="st0" points="66.8,53.5 66.4,53.3 64.9,51.5 63.2,49.6 58.9,45.1 55.4,41.2 49.6,35 49,35.6 37.6,46.2 33.1,50.2 
		48.1,66.8 49.8,68.5 50.5,69.4 63,57.3 	"/>
	<path class="st0" d="M59.7,28.5L59.7,28.5c0-0.2-0.2-0.4-0.4-0.6C59.3,28.1,59.5,28.3,59.7,28.5z"/>
</g>
</svg>
