<?xml version="1.0" encoding="utf-8"?>
<!-- Generator: Adobe Illustrator 25.3.1, SVG Export Plug-In . SVG Version: 6.00 Build 0)  -->
<svg version="1.1" id="Layer_1" xmlns="http://www.w3.org/2000/svg" xmlns:xlink="http://www.w3.org/1999/xlink" x="0px" y="0px"
	 viewBox="0 0 100 100" style="enable-background:new 0 0 100 100;" xml:space="preserve">
<style type="text/css">
	.st0{fill:#FFFFFF;}
</style>
<g>
	<path class="st0" d="M78.1,0.2H11.2C5.6,0.2,1,4.8,1,10.5V78c0,5.7,4.6,10.3,10.2,10.3h56.6L65.2,79l6.4,5.9l6,5.6l10.7,9.5V10.5
		C88.3,4.8,83.7,0.2,78.1,0.2z M58.8,65.4c0,0-1.8-2.1-3.3-4c6.5-1.8,9-5.9,9-5.9c-2,1.3-4,2.3-5.7,2.9c-2.5,1.1-4.9,1.7-7.2,2.1
		c-4.8,0.9-9.2,0.6-12.9,0c-2.8-0.5-5.3-1.3-7.3-2.1c-1.2-0.4-2.4-1-3.6-1.7c-0.1-0.1-0.3-0.1-0.4-0.2c-0.1,0-0.1-0.1-0.2-0.1
		c-0.9-0.5-1.4-0.9-1.4-0.9s2.4,4,8.7,5.9c-1.5,1.9-3.3,4.1-3.3,4.1c-11-0.3-15.2-7.6-15.2-7.6c0-16.1,7.2-29.1,7.2-29.1
		c7.2-5.4,14-5.3,14-5.3l0.5,0.6c-9,2.6-13.1,6.5-13.1,6.5s1.1-0.6,2.9-1.4c5.4-2.4,9.6-3,11.3-3.1c0.3,0,0.5-0.1,0.9-0.1
		c3-0.4,6.5-0.5,10.1-0.1c4.7,0.5,9.8,1.9,15,4.8c0,0-4-3.8-12.4-6.3l0.7-0.8c0,0,6.8-0.1,14,5.3c0,0,7.2,13,7.2,29.1
		C74.1,57.8,69.9,65,58.8,65.4z M35.6,42.1c-2.8,0-5.1,2.5-5.1,5.5s2.3,5.5,5.1,5.5c2.8,0,5.1-2.5,5.1-5.5
		C40.8,44.6,38.5,42.1,35.6,42.1 M53.8,42.1c-2.8,0-5.1,2.5-5.1,5.5s2.3,5.5,5.1,5.5c2.8,0,5.1-2.5,5.1-5.5
		C58.9,44.6,56.7,42.1,53.8,42.1"/>
</g>
</svg>
