<?xml version="1.0" encoding="utf-8"?>
<!-- Generator: Adobe Illustrator 25.3.1, SVG Export Plug-In . SVG Version: 6.00 Build 0)  -->
<svg version="1.1" id="Layer_1" xmlns="http://www.w3.org/2000/svg" xmlns:xlink="http://www.w3.org/1999/xlink" x="0px" y="0px"
	 viewBox="0 0 100 100" style="enable-background:new 0 0 100 100;" xml:space="preserve">
<style type="text/css">
	.st0{fill:#FFFFFF;}
</style>
<g>
	<path class="st0" d="M100.2,9.9c-3.7,1.6-7.6,2.7-11.8,3.2c4.2-2.5,7.5-6.6,9-11.4c-4,2.3-8.4,4.1-13.1,5c-3.7-4-9.1-6.5-15-6.5
		C58,0.2,48.8,9.4,48.8,20.8c0,1.6,0.2,3.2,0.5,4.7C32.2,24.6,17.1,16.4,6.9,4C5.2,7,4.2,10.5,4.2,14.3c0,7.1,3.6,13.4,9.2,17.1
		c-3.4-0.1-6.5-1-9.3-2.6c0,0.1,0,0.2,0,0.3c0,9.9,7.1,18.3,16.5,20.2C18.8,49.7,17,50,15.1,50c-1.3,0-2.6-0.1-3.9-0.4
		c2.6,8.2,10.2,14.1,19.2,14.3c-7,5.5-15.9,8.8-25.5,8.8c-1.6,0-3.3-0.1-4.9-0.3c9.1,5.8,19.9,9.2,31.5,9.2
		C69.3,81.7,90,50.4,90,23.2c0-0.9,0-1.8-0.1-2.7C94,17.6,97.5,14,100.2,9.9"/>
</g>
</svg>
