<?xml version="1.0" encoding="utf-8"?>
<!-- Generator: Adobe Illustrator 25.3.1, SVG Export Plug-In . SVG Version: 6.00 Build 0)  -->
<svg version="1.1" id="Layer_1" xmlns="http://www.w3.org/2000/svg" xmlns:xlink="http://www.w3.org/1999/xlink" x="0px" y="0px"
	 viewBox="0 0 841.9 595.3" style="enable-background:new 0 0 841.9 595.3;" xml:space="preserve">
<style type="text/css">
	.st0{fill:#231F20;}
	.st1{fill:#FFFFFF;}
	.st2{fill:#FBDAD6;}
	.st3{fill:#F4F6FB;}
</style>
<g>
	<path class="st0" d="M375.8,179.9c-1.8-13.3-5.5-26.3-11.4-36c-6.3-10.5-17.3-18-29.7-13c-28.7,11.4-28.5,59-21.2,83.1
		c5.3,17.2,20.4,38.3,41.4,31.8c11.4-3.5,18.4-15.4,20.5-27.1C377.5,207.4,377.7,193.5,375.8,179.9z"/>
	<path class="st0" d="M594.9,199.1c-1.7-12.4-5.1-24.5-10.6-33.6c-5.8-9.7-16.1-16.7-27.7-12.1c-26.7,10.6-26.6,55-19.7,77.4
		c4.9,16.1,19,35.7,38.6,29.7c10.6-3.3,17.2-14.3,19.1-25.3C596.4,224.8,596.6,211.8,594.9,199.1z"/>
	<path class="st1" d="M224,347.4c33,28.8,75.8,9.3,102.9-17.6c14.1-14.1,23.3-30.8,34.7-46.9c11.8-16.7,25-32.2,38.5-47.5
		c33.2-37.6,88.2-83.2,88.1-137.6c0-39.9-34.8-67.5-73.2-53.9c-34.5,12.2-54.3,47.2-76.9,73.8c-22,25.8-44.9,50.9-68.6,75.1
		c-20.4,20.8-43.3,39.8-56,66.8C199.6,288.1,200,326.6,224,347.4z"/>
	<path class="st0" d="M224,347.4l-5,5.8c12.9,11.3,27.7,16.2,42.2,16.1c27-0.1,52.5-15.7,71.1-34c15.1-15.1,24.5-32.3,35.6-47.9
		c11.5-16.3,24.5-31.7,37.9-46.9c16.2-18.4,38.4-39.3,56.8-62.8c18.3-23.4,33.2-49.9,33.2-79.7l0,0l0-0.1v-0.1l0-0.1l-4.6,0.1l4.6,0
		l0-0.1l-4.6,0.1l4.6,0c0-18.3-6.6-34.6-17.7-46.3c-11-11.7-26.5-18.8-43.5-18.8c-7.3,0-14.8,1.3-22.3,3.9
		c-38.1,13.8-58.2,50.5-80.2,76c-21.9,25.7-44.6,50.6-68.2,74.7c-19.9,20.4-43.7,39.9-57.4,68.9l6.9,3.3l-6.9-3.3
		c-6.4,13.2-9.9,28.2-10,43.1c0,20,6.6,40.1,22.4,53.9L224,347.4l5-5.8c-11.7-10.1-17.1-25.6-17.1-42.4c0-12.4,3-25.3,8.4-36.4l0,0
		l0,0c11.7-25,33.7-43.5,54.5-64.7c23.9-24.3,46.9-49.5,68.9-75.5c23.1-27.5,42.7-60.9,73.6-71.5c6-2.1,11.7-3.1,17.2-3.1
		c25.4,0.1,45.7,20.5,45.8,49.7l0,0.1l4.5-0.1h-4.5l0,0.1l4.5-0.1h-4.5h7.7l-7.7-0.2l0,0.4c0.1,24.5-12.5,48-30,70.3
		c-17.4,22.3-39.3,42.9-56.2,62.1c-13.6,15.4-26.9,31.1-39,48.2c-11.7,16.6-20.7,32.8-33.8,45.9c-16.6,16.6-39.5,29.7-60.3,29.6
		c-11.2,0-21.9-3.5-32.1-12.3L224,347.4z"/>
	
		<rect x="293.2" y="165.5" transform="matrix(0.6594 -0.7518 0.7518 0.6594 -40.6203 326.5262)" class="st2" width="93.8" height="85.3"/>
	<polygon class="st0" points="277.1,215.2 282.9,220.3 339.7,155.5 392.2,201.7 340.5,260.7 282.1,209.5 277.1,215.2 282.9,220.3 
		277.1,215.2 272,221 341.9,282.3 413.9,200.2 338.2,133.9 266.3,215.9 272,221 	"/>
	<path class="st0" d="M445.1,139.4c-2.4,3.1-6.9,3.6-10,1.2c-3.1-2.4-3.6-6.9-1.2-10c2.4-3.1,6.9-3.6,10-1.2
		C447,131.8,447.5,136.3,445.1,139.4z"/>
	<path class="st0" d="M421.5,120.8c-2.4,3.1-6.9,3.6-10,1.2c-3.1-2.4-3.6-6.9-1.2-10c2.4-3.1,6.9-3.6,10-1.2
		C423.3,113.3,423.9,117.7,421.5,120.8z"/>
	<path class="st0" d="M397.8,102.3c-2.4,3.1-6.9,3.6-10,1.2c-3.1-2.4-3.6-6.9-1.2-10c2.4-3.1,6.9-3.6,10-1.2
		C399.7,94.7,400.3,99.2,397.8,102.3z"/>
	<path class="st0" d="M412.6,156.4c-2.4,3.1-6.9,3.6-10,1.2c-3.1-2.4-3.6-6.9-1.2-10c2.4-3.1,6.9-3.6,10-1.2
		C414.5,148.8,415.1,153.3,412.6,156.4z"/>
	<path class="st0" d="M389,137.8c-2.4,3.1-6.9,3.6-10,1.2c-3.1-2.4-3.6-6.9-1.2-10c2.4-3.1,6.9-3.6,10-1.2
		C390.9,130.2,391.5,134.7,389,137.8z"/>
	<path class="st0" d="M453.9,103.9c-2.4,3.1-6.9,3.6-10,1.2c-3.1-2.4-3.6-6.9-1.2-10c2.4-3.1,6.9-3.6,10-1.2
		C455.8,96.3,456.3,100.8,453.9,103.9z"/>
	<path class="st0" d="M430.3,85.3c-2.4,3.1-6.9,3.6-10,1.2s-3.6-6.9-1.2-10c2.4-3.1,6.9-3.6,10-1.2
		C432.2,77.7,432.7,82.2,430.3,85.3z"/>
	<path class="st0" d="M298,312.3c-2.4,3.1-6.9,3.6-10,1.2c-3.1-2.4-3.6-6.9-1.2-10c2.4-3.1,6.9-3.6,10-1.2
		C299.9,304.7,300.5,309.2,298,312.3z"/>
	<path class="st0" d="M274.4,293.8c-2.4,3.1-6.9,3.6-10,1.2c-3.1-2.4-3.6-6.9-1.2-10c2.4-3.1,6.9-3.6,10-1.2
		C276.3,286.2,276.8,290.7,274.4,293.8z"/>
	<path class="st0" d="M250.8,275.2c-2.4,3.1-6.9,3.6-10,1.2c-3.1-2.4-3.6-6.9-1.2-10c2.4-3.1,6.9-3.6,10-1.2
		C252.7,267.6,253.2,272.1,250.8,275.2z"/>
	<path class="st0" d="M265.6,329.3c-2.4,3.1-6.9,3.6-10,1.2c-3.1-2.4-3.6-6.9-1.2-10c2.4-3.1,6.9-3.6,10-1.2
		C267.5,321.7,268,326.2,265.6,329.3z"/>
	<path class="st0" d="M242,310.8c-2.4,3.1-6.9,3.6-10,1.2c-3.1-2.4-3.6-6.9-1.2-10c2.4-3.1,6.9-3.6,10-1.2
		C243.9,303.2,244.4,307.7,242,310.8z"/>
	<path class="st0" d="M312.4,281.2c-2.4,3.1-6.9,3.6-10,1.2c-3.1-2.4-3.6-6.9-1.2-10c2.4-3.1,6.9-3.6,10-1.2
		C314.3,273.6,314.9,278.1,312.4,281.2z"/>
	<path class="st0" d="M288.8,262.6c-2.4,3.1-6.9,3.6-10,1.2c-3.1-2.4-3.6-6.9-1.2-10c2.4-3.1,6.9-3.6,10-1.2
		C290.7,255.1,291.3,259.5,288.8,262.6z"/>
	<path class="st3" d="M476.2,341.2c32-29.9,17-74.5-7-104.1c-12.5-15.5-28.2-26.3-43.1-39.3c-15.4-13.4-29.5-28.1-43.3-43.1
		c-34-36.9-73.7-96.3-127.9-101.7c-39.7-4.1-70.7,27.7-61.1,67.3c8.6,35.6,41.4,58.9,65.5,84c23.4,24.5,46,49.8,67.7,75.9
		c18.6,22.4,35.2,47.1,60.7,62.5C414.7,359.4,453,362.9,476.2,341.2z"/>
	<path class="st0" d="M476.2,341.2l5.2,5.6c14.6-13.6,20.8-30.7,20.7-47.5c-0.1-24.5-12-48.5-26.9-67c-13.5-16.6-29.6-27.7-44-40.3
		c-15-13.1-29-27.6-42.7-42.5c-16.7-18-35.2-42.3-56.7-63c-21.5-20.6-46.3-38.1-76-41.2c-2.6-0.3-5.1-0.4-7.7-0.4
		c-17.6,0-33.6,6.4-45.1,17.4c-11.5,10.9-18.6,26.4-18.6,43.7c0,5.2,0.6,10.6,2,16.1c9.8,39.3,44.3,63,67.4,87.5
		c23.3,24.4,45.8,49.6,67.3,75.5c18.3,21.9,35.2,47.6,62.7,64.2l3.9-6.6l-4,6.5c15.1,9.3,33.1,14.8,50.9,14.8
		c16.9,0,33.9-5.1,46.9-17.2L476.2,341.2l-5.2-5.6c-9.6,9-22.4,13.1-36.4,13.1c-14.6,0-30.2-4.7-42.9-12.5l0,0l-0.1,0
		c-23.7-14.2-39.9-38-58.8-60.8c-21.8-26.2-44.5-51.7-68-76.3c-25-25.8-56.2-48.7-63.6-80.5c-1.1-4.3-1.5-8.5-1.5-12.5
		c0.1-26.1,20.5-45.5,48.3-45.7l6.1,0.3c24.4,2.4,46.6,17.3,67,37c20.4,19.6,38.7,43.5,56.1,62.3c13.9,15.1,28.2,30,43.9,43.7
		c15.3,13.3,30.6,23.9,42.2,38.4c13.4,16.5,23.6,38.1,23.5,57.4c-0.1,13.3-4.4,25.5-15.8,36.3L476.2,341.2z"/>
	
		<rect x="306.9" y="164.6" transform="matrix(0.7329 -0.6804 0.6804 0.7329 -50.5045 294.2791)" class="st1" width="85.3" height="93.8"/>
	<polygon class="st0" points="350.2,274.8 355.8,269.6 297.2,206.5 348.4,158.9 401.8,216.4 345,269.2 350.2,274.8 355.8,269.6 
		350.2,274.8 355.4,280.4 423.5,217.2 349.2,137.3 275.5,205.7 349.8,285.7 355.4,280.4 	"/>
	<path class="st0" d="M291.9,100c2.8,2.7,2.9,7.3,0.2,10.1c-2.7,2.8-7.3,2.9-10.1,0.2c-2.8-2.7-2.9-7.3-0.2-10.1
		C284.5,97.3,289.1,97.2,291.9,100z"/>
	<path class="st0" d="M271,121.6c2.8,2.7,2.9,7.3,0.2,10.1c-2.7,2.8-7.3,2.9-10.1,0.2c-2.8-2.7-2.9-7.3-0.2-10.1
		C263.7,118.9,268.2,118.8,271,121.6z"/>
	<path class="st0" d="M250.2,143.2c2.8,2.7,2.9,7.3,0.2,10.1c-2.7,2.8-7.3,2.9-10.1,0.2c-2.8-2.7-2.9-7.3-0.2-10.1
		C242.8,140.5,247.3,140.4,250.2,143.2z"/>
	<path class="st0" d="M305.5,134c2.8,2.7,2.9,7.3,0.2,10.1c-2.7,2.8-7.3,2.9-10.1,0.2c-2.8-2.7-2.9-7.3-0.2-10.1
		C298.1,131.3,302.6,131.2,305.5,134z"/>
	<path class="st0" d="M284.6,155.6c2.8,2.7,2.9,7.3,0.2,10.1c-2.7,2.8-7.3,2.9-10.1,0.2c-2.8-2.7-2.9-7.3-0.2-10.1
		C277.3,152.9,281.8,152.8,284.6,155.6z"/>
	<path class="st0" d="M257.4,87.6c2.8,2.7,2.9,7.3,0.2,10.1c-2.7,2.8-7.3,2.9-10.1,0.2c-2.8-2.7-2.9-7.3-0.2-10.1
		C250.1,84.9,254.6,84.8,257.4,87.6z"/>
	<path class="st0" d="M236.6,109.2c2.8,2.7,2.9,7.3,0.2,10.1c-2.7,2.8-7.3,2.9-10.1,0.2c-2.8-2.7-2.9-7.3-0.2-10.1
		C229.2,106.5,233.7,106.4,236.6,109.2z"/>
	<path class="st0" d="M448.9,263.9c2.8,2.7,2.9,7.3,0.2,10.1c-2.7,2.8-7.3,2.9-10.1,0.2c-2.8-2.7-2.9-7.3-0.2-10.1
		C441.5,261.3,446,261.2,448.9,263.9z"/>
	<path class="st0" d="M428,285.5c2.8,2.7,2.9,7.3,0.2,10.1c-2.7,2.8-7.3,2.9-10.1,0.2c-2.8-2.7-2.9-7.3-0.2-10.1
		C420.7,282.9,425.2,282.8,428,285.5z"/>
	<path class="st0" d="M407.1,307.2c2.8,2.7,2.9,7.3,0.2,10.1c-2.7,2.8-7.3,2.9-10.1,0.2c-2.8-2.7-2.9-7.3-0.2-10.1
		C399.8,304.5,404.3,304.4,407.1,307.2z"/>
	<path class="st0" d="M462.5,297.9c2.8,2.7,2.9,7.3,0.2,10.1c-2.7,2.8-7.3,2.9-10.1,0.2c-2.8-2.7-2.9-7.3-0.2-10.1
		C455.1,295.3,459.6,295.2,462.5,297.9z"/>
	<path class="st0" d="M441.6,319.6c2.8,2.7,2.9,7.3,0.2,10.1c-2.7,2.8-7.3,2.9-10.1,0.2c-2.8-2.7-2.9-7.3-0.2-10.1
		C434.2,316.9,438.8,316.8,441.6,319.6z"/>
	<path class="st0" d="M419.4,246.4c2.8,2.7,2.9,7.3,0.2,10.1c-2.7,2.8-7.3,2.9-10.1,0.2c-2.8-2.7-2.9-7.3-0.2-10.1
		C412,243.8,416.5,243.7,419.4,246.4z"/>
	<path class="st0" d="M398.5,268c2.8,2.7,2.9,7.3,0.2,10.1c-2.7,2.8-7.3,2.9-10.1,0.2c-2.8-2.7-2.9-7.3-0.2-10.1
		C391.2,265.4,395.7,265.3,398.5,268z"/>
	<path class="st1" d="M650.7,471.6l-405.5-23.4c0,0,138.9-122.8,202.8-32.2C447.9,416.1,530.6,340,650.7,471.6z"/>
	<path class="st0" d="M650.7,471.6l0.4-7.6l-405.5-23.4l-0.4,7.6l5.1,5.7l3.1-2.7c7.3-6.1,26.7-21.5,51.1-35.3
		c24.3-13.8,53.6-25.7,79.7-25.7c22.1,0.2,41.6,7.7,57.5,30.1l5.4,3.2l6-2l0.1-0.1c2-1.7,23.7-19.8,59-19.7
		c32.6,0.1,78,15,132.8,74.9L650.7,471.6l0.4-7.6L650.7,471.6l5.7-5.2c-56.6-62.1-106.6-80-144.1-79.9
		c-43.4,0.1-68.7,23.2-69.5,23.9l5.2,5.6l6.3-4.4c-18.4-26.5-44.3-36.8-70.1-36.6c-35,0.1-70.6,17.2-97.8,33.9
		c-27.2,16.7-46,33.4-46.2,33.6c-2.3,2.1-3.2,5.3-2.2,8.2c1,2.9,3.7,5,6.8,5.1l405.5,23.4c3.1,0.2,6-1.5,7.4-4.4
		c1.3-2.8,0.8-6.2-1.3-8.5L650.7,471.6z"/>
	<path class="st3" d="M264.5,453.8c59.9,2.6,119.5,8.1,179.1,14.3c59.7,6.1,119.7,5.3,179.6,8.6l-2.5,2.4c-2.9,2.7-5.8,5.3-8.7,7.9
		c-9.7,8.4-19.9,16.4-30.5,23.6c-39,26.6-77.3,30.8-123.3,29.6C388.8,538.2,304.4,516.2,264.5,453.8z"/>
	<path class="st0" d="M264.6,450.3l-0.3,7.7c59.6,2.6,119.1,8.1,178.6,14.2c60.3,6.1,120.4,5.3,179.9,8.6l0.4-7.6l-5.3-5.5l-2.5,2.4
		l0.1,0c-2.8,2.6-5.6,5.2-8.5,7.7c-9.5,8.3-19.5,16-29.8,23.1c-33.6,22.8-65.9,28.4-105.3,28.4c-4.4,0-8.9-0.1-13.4-0.2
		c-68-1.8-150-23.9-187.3-82.8L264.6,450.3l-0.3,7.7L264.6,450.3l-6.5,4.1c42.5,65.9,129.4,87.8,199.8,89.9
		c4.7,0.1,9.3,0.2,13.8,0.2c40.7,0.1,77.5-6.1,114-31.1c10.9-7.4,21.3-15.6,31.2-24.2c3-2.6,6-5.3,9-8.1l0.1,0l2.5-2.4
		c2.2-2.1,2.9-5.3,1.9-8.2c-1.1-2.9-3.7-4.8-6.8-5c-60.2-3.3-120.1-2.5-179.2-8.6c-59.6-6.1-119.4-11.7-179.5-14.3
		c-2.9-0.1-5.5,1.4-7,3.8c-1.4,2.5-1.4,5.5,0.2,8L264.6,450.3z"/>
</g>
</svg>
